<?xml version="1.0" ?><!DOCTYPE svg  PUBLIC '-//W3C//DTD SVG 1.1//EN'  'http://www.w3.org/Graphics/SVG/1.1/DTD/svg11.dtd'><svg height="512" width="512" enable-background="new 0 0 128 128" id="Social_Icons" version="1.1" viewBox="0 0 128 128" xml:space="preserve" xmlns="http://www.w3.org/2000/svg" xmlns:xlink="http://www.w3.org/1999/xlink"><g id="_x32__stroke"><g id="Slack_1_"><rect clip-rule="evenodd" fill="none" fill-rule="evenodd" height="128" width="128"/><path clip-rule="evenodd" d="M52.692,58.633l5.512,16.46l17.104-5.728    l-5.512-16.46L52.692,58.633z M100.398,74.958l-8.292,2.776l2.872,8.584c1.164,3.472-0.708,7.232-4.184,8.396    c-0.756,0.256-1.524,0.364-2.276,0.344c-2.712-0.072-5.212-1.808-6.12-4.528l-2.876-8.58l-17.1,5.728l2.872,8.58    c1.164,3.476-0.708,7.236-4.184,8.4c-0.756,0.252-1.524,0.36-2.276,0.34c-2.712-0.068-5.212-1.808-6.12-4.524l-2.876-8.584    l-8.292,2.78c-0.756,0.252-1.528,0.36-2.28,0.34c-2.708-0.068-5.208-1.808-6.12-4.528c-1.164-3.472,0.708-7.232,4.184-8.396    l8.296-2.78l-5.516-16.46l-8.292,2.78c-0.756,0.252-1.524,0.36-2.28,0.34c-2.708-0.068-5.208-1.808-6.12-4.528    c-1.164-3.472,0.712-7.232,4.184-8.396l8.296-2.78l-2.876-8.58c-1.164-3.476,0.708-7.236,4.184-8.396    c3.476-1.164,7.236,0.708,8.4,4.184l2.872,8.58l17.104-5.728l-2.876-8.58c-1.164-3.476,0.712-7.236,4.184-8.4    c3.476-1.164,7.236,0.712,8.4,4.184l2.872,8.584l8.296-2.78c3.476-1.164,7.232,0.712,8.396,4.184    c1.164,3.476-0.708,7.236-4.184,8.4l-8.292,2.776l5.512,16.464l8.296-2.78c3.472-1.16,7.232,0.712,8.396,4.184    C105.746,70.034,103.874,73.794,100.398,74.958z M122.642,46.406C109.45,2.422,90.39-7.838,46.406,5.358    C2.426,18.55-7.838,37.61,5.358,81.594c13.196,43.98,32.256,54.244,76.236,41.048C125.578,109.446,135.838,90.386,122.642,46.406" fill="#77D4B6" fill-rule="evenodd" id="Slack"/></g></g></svg>